<svg width="28" height="24" viewBox="0 0 28 24" fill="none" xmlns="http://www.w3.org/2000/svg">
<path d="M25.1218 6.29697C25.1396 6.54569 25.1396 6.79446 25.1396 7.04318C25.1396 14.6294 19.3655 23.3706 8.81218 23.3706C5.5609 23.3706 2.54062 22.4289 0 20.7945C0.461945 20.8477 0.906062 20.8655 1.38578 20.8655C4.06848 20.8655 6.53805 19.9594 8.51014 18.4138C5.9873 18.3604 3.87308 16.7082 3.14464 14.434C3.5 14.4873 3.8553 14.5228 4.22844 14.5228C4.74365 14.5228 5.25891 14.4518 5.73858 14.3274C3.10915 13.7944 1.13701 11.4848 1.13701 8.69546V8.62442C1.90094 9.05081 2.78934 9.31731 3.73089 9.3528C2.1852 8.32232 1.17255 6.56346 1.17255 4.5736C1.17255 3.50763 1.45677 2.53048 1.95426 1.67768C4.77914 5.15991 9.02535 7.43398 13.7867 7.68275C13.6979 7.25635 13.6446 6.81224 13.6446 6.36806C13.6446 3.2056 16.203 0.629486 19.3832 0.629486C21.0354 0.629486 22.5278 1.32238 23.5761 2.44167C24.873 2.19295 26.1166 1.71323 27.2182 1.05588C26.7917 2.3884 25.8857 3.50769 24.6953 4.2183C25.8502 4.09399 26.9695 3.77413 27.9999 3.33001C27.2183 4.46702 26.2411 5.47967 25.1218 6.29697V6.29697Z" fill="black"/>
</svg>
